<mxfile host="app.diagrams.net" modified="2023-10-28T02:26:35.027Z" agent="Mozilla/5.0 (Windows NT 10.0; Win64; x64) AppleWebKit/537.36 (KHTML, like Gecko) Chrome/118.0.0.0 Safari/537.36 Edg/118.0.2088.69" etag="NTnJ7cIYge0rH_5skzGk" version="22.0.8" type="github">
  <diagram name="第 1 页" id="b59aNDDgQeugo0UPwiKA">
    <mxGraphModel dx="967" dy="517" grid="1" gridSize="10" guides="1" tooltips="1" connect="1" arrows="1" fold="1" page="1" pageScale="1" pageWidth="1169" pageHeight="827" math="0" shadow="0">
      <root>
        <mxCell id="0" />
        <mxCell id="1" parent="0" />
        <mxCell id="00BW6miOOuICYphpXMAc-1" value="&lt;font style=&quot;font-size: 23px;&quot;&gt;Kernel&lt;/font&gt;" style="rounded=0;whiteSpace=wrap;html=1;fillColor=#f5f5f5;fontColor=#333333;strokeColor=#666666;" vertex="1" parent="1">
          <mxGeometry x="440" y="580" width="340" height="70" as="geometry" />
        </mxCell>
        <mxCell id="00BW6miOOuICYphpXMAc-2" value="&lt;font style=&quot;font-size: 20px;&quot;&gt;bootfs&lt;/font&gt;" style="rounded=0;whiteSpace=wrap;html=1;fillColor=#fff2cc;strokeColor=#d6b656;" vertex="1" parent="1">
          <mxGeometry x="440" y="550" width="340" height="30" as="geometry" />
        </mxCell>
        <mxCell id="00BW6miOOuICYphpXMAc-3" value="&lt;font style=&quot;font-size: 18px;&quot;&gt;Debian（Base Image）&lt;/font&gt;" style="rounded=0;whiteSpace=wrap;html=1;fillColor=#d5e8d4;strokeColor=#82b366;" vertex="1" parent="1">
          <mxGeometry x="440" y="500" width="340" height="50" as="geometry" />
        </mxCell>
        <mxCell id="00BW6miOOuICYphpXMAc-4" value="&lt;font style=&quot;font-size: 18px;&quot;&gt;add emacs（Image）&lt;/font&gt;" style="rounded=0;whiteSpace=wrap;html=1;fillColor=#dae8fc;strokeColor=#6c8ebf;" vertex="1" parent="1">
          <mxGeometry x="440" y="450" width="340" height="50" as="geometry" />
        </mxCell>
        <mxCell id="00BW6miOOuICYphpXMAc-5" value="&lt;font style=&quot;font-size: 18px;&quot;&gt;add Apache（Image）&lt;/font&gt;" style="rounded=0;whiteSpace=wrap;html=1;fillColor=#dae8fc;strokeColor=#6c8ebf;" vertex="1" parent="1">
          <mxGeometry x="440" y="400" width="340" height="50" as="geometry" />
        </mxCell>
        <mxCell id="00BW6miOOuICYphpXMAc-6" value="&lt;font style=&quot;font-size: 18px;&quot;&gt;writable（Container）&lt;/font&gt;" style="rounded=0;whiteSpace=wrap;html=1;fillColor=#b0e3e6;strokeColor=#0e8088;" vertex="1" parent="1">
          <mxGeometry x="440" y="350" width="340" height="50" as="geometry" />
        </mxCell>
        <mxCell id="00BW6miOOuICYphpXMAc-7" value="" style="curved=1;endArrow=classic;html=1;rounded=0;exitX=1;exitY=0.5;exitDx=0;exitDy=0;entryX=1;entryY=0.5;entryDx=0;entryDy=0;strokeWidth=4;" edge="1" parent="1" source="00BW6miOOuICYphpXMAc-5" target="00BW6miOOuICYphpXMAc-4">
          <mxGeometry width="50" height="50" relative="1" as="geometry">
            <mxPoint x="790" y="430" as="sourcePoint" />
            <mxPoint x="820" y="490" as="targetPoint" />
            <Array as="points">
              <mxPoint x="860" y="450" />
            </Array>
          </mxGeometry>
        </mxCell>
        <mxCell id="00BW6miOOuICYphpXMAc-8" value="&lt;font style=&quot;font-size: 18px;&quot;&gt;references parent image&lt;/font&gt;" style="text;html=1;strokeColor=none;fillColor=none;align=center;verticalAlign=middle;whiteSpace=wrap;rounded=0;strokeWidth=2;" vertex="1" parent="1">
          <mxGeometry x="820" y="440" width="220" height="30" as="geometry" />
        </mxCell>
      </root>
    </mxGraphModel>
  </diagram>
</mxfile>
